<svg xmlns="http://www.w3.org/2000/svg" viewBox="0 0 900 540" role="img" aria-labelledby="title desc">
  <title id="title">ミニバス会場準備用コート図</title>
  <desc id="desc">コート、センターライン、フリースローライン、ベンチ、TO席、得点板の位置を確認するための簡易図です。</desc>
  <rect width="900" height="540" fill="#fff"/>
  <rect x="42" y="42" width="816" height="456" fill="#fff" stroke="#111" stroke-width="6"/>
  <line x1="450" y1="42" x2="450" y2="498" stroke="#111" stroke-width="4"/>
  <circle cx="450" cy="270" r="58" fill="none" stroke="#111" stroke-width="4"/>
  <circle cx="450" cy="270" r="7" fill="#111"/>
  <line x1="42" y1="128" x2="188" y2="128" stroke="#111" stroke-width="4"/>
  <line x1="42" y1="412" x2="188" y2="412" stroke="#111" stroke-width="4"/>
  <line x1="188" y1="128" x2="188" y2="412" stroke="#111" stroke-width="4"/>
  <line x1="858" y1="128" x2="712" y2="128" stroke="#111" stroke-width="4"/>
  <line x1="858" y1="412" x2="712" y2="412" stroke="#111" stroke-width="4"/>
  <line x1="712" y1="128" x2="712" y2="412" stroke="#111" stroke-width="4"/>
  <line x1="188" y1="174" x2="42" y2="174" stroke="#111" stroke-width="3" stroke-dasharray="10 8"/>
  <line x1="712" y1="174" x2="858" y2="174" stroke="#111" stroke-width="3" stroke-dasharray="10 8"/>
  <path d="M188 168a102 102 0 0 1 0 204" fill="none" stroke="#111" stroke-width="4"/>
  <path d="M712 168a102 102 0 0 0 0 204" fill="none" stroke="#111" stroke-width="4"/>
  <circle cx="74" cy="270" r="8" fill="#111"/>
  <circle cx="826" cy="270" r="8" fill="#111"/>
  <rect x="330" y="10" width="240" height="28" fill="#111"/>
  <text x="450" y="30" text-anchor="middle" font-family="sans-serif" font-size="18" fill="#fff">TO席・得点板</text>
  <rect x="120" y="506" width="250" height="26" fill="#eee" stroke="#111" stroke-width="2"/>
  <text x="245" y="525" text-anchor="middle" font-family="sans-serif" font-size="16" fill="#111">ベンチ</text>
  <rect x="530" y="506" width="250" height="26" fill="#eee" stroke="#111" stroke-width="2"/>
  <text x="655" y="525" text-anchor="middle" font-family="sans-serif" font-size="16" fill="#111">ベンチ</text>
  <text x="450" y="85" text-anchor="middle" font-family="sans-serif" font-size="17" fill="#111">センターライン</text>
  <text x="188" y="154" text-anchor="middle" font-family="sans-serif" font-size="15" fill="#111">フリースローライン</text>
  <text x="712" y="154" text-anchor="middle" font-family="sans-serif" font-size="15" fill="#111">フリースローライン</text>
  <text x="74" y="250" text-anchor="middle" font-family="sans-serif" font-size="15" fill="#111">リング</text>
  <text x="826" y="250" text-anchor="middle" font-family="sans-serif" font-size="15" fill="#111">リング</text>
  <text x="450" y="468" text-anchor="middle" font-family="sans-serif" font-size="15" fill="#666">寸法・ラインの最終確認は公式資料・大会要項に合わせてください</text>
</svg>
